<?xml version="1.0" standalone="no"?>
<!DOCTYPE svg PUBLIC "-//W3C//DTD SVG 20010904//EN"
 "http://www.w3.org/TR/2001/REC-SVG-20010904/DTD/svg10.dtd">
<svg version="1.0" xmlns="http://www.w3.org/2000/svg"
 width="1280.000000pt" height="1222.000000pt" viewBox="0 0 1280.000000 1222.000000"
 preserveAspectRatio="xMidYMid meet">
<metadata>
Created by potrace 1.15, written by Peter Selinger 2001-2017
</metadata>
<g transform="translate(0.000000,1222.000000) scale(0.100000,-0.100000)"
fill="#673ab7" stroke="none">
<path d="M5710 12214 c-527 -37 -892 -98 -1320 -219 -548 -155 -1112 -409
-1579 -711 -63 -41 -118 -74 -122 -74 -4 0 -103 136 -218 303 -116 166 -230
326 -253 354 -138 176 -420 166 -547 -21 -48 -71 -22 64 -292 -1506 -44 -256
-91 -528 -104 -605 -191 -1101 -226 -1321 -219 -1369 22 -162 156 -286 319
-294 39 -2 250 8 470 22 220 14 940 60 1600 101 660 41 1221 79 1246 85 98 20
191 97 235 194 38 83 39 194 2 276 -29 64 -55 90 -362 370 -123 113 -223 209
-222 214 3 13 181 102 321 162 468 200 1023 297 1525 264 411 -26 724 -94
1080 -235 74 -30 157 -59 183 -66 71 -17 151 -6 226 33 121 62 107 34 491 994
l344 859 0 90 c1 77 -3 98 -26 147 -53 114 -116 154 -407 262 -506 188 -988
298 -1536 352 -151 14 -712 27 -835 18z"/>
<path d="M9880 9497 c-61 -21 -114 -54 -152 -94 -23 -24 -112 -177 -236 -408
-1061 -1971 -1345 -2502 -1362 -2545 -32 -81 -21 -201 25 -276 64 -103 159
-163 270 -171 75 -6 133 8 659 156 l139 39 -7 -101 c-49 -707 -341 -1409 -814
-1959 -172 -199 -374 -384 -608 -556 -61 -45 -123 -99 -139 -122 -34 -48 -65
-140 -65 -189 0 -48 25 -145 47 -179 10 -15 263 -355 563 -757 336 -449 562
-743 588 -763 83 -66 203 -88 309 -57 57 17 195 111 388 266 1004 800 1725
1923 2034 3164 110 444 160 842 168 1340 3 235 8 321 16 322 7 1 163 9 347 18
184 9 374 20 422 25 148 15 240 77 297 200 21 46 25 69 25 140 0 71 -5 94 -26
140 -15 30 -38 67 -51 82 -14 14 -377 336 -808 714 -431 378 -994 872 -1251
1098 -524 460 -546 477 -670 482 -40 2 -89 -2 -108 -9z m2043 -2122 c208 -180
376 -329 375 -331 -5 -5 -643 -34 -702 -32 l-51 1 60 7 c33 4 50 7 37 8 l-23
2 1 297 1 298 -69 65 c-86 82 -83 79 371 -315z m-395 -372 c-10 -2 -26 -2 -35
0 -10 3 -2 5 17 5 19 0 27 -2 18 -5z"/>
<path d="M1850 6414 c-113 -14 -518 -61 -900 -104 -677 -78 -697 -81 -757
-110 -103 -51 -174 -148 -189 -258 -16 -122 61 -614 153 -977 400 -1583 1443
-2924 2888 -3711 l105 -57 -149 -291 c-82 -160 -168 -328 -191 -374 -107 -211
-50 -401 150 -503 36 -18 62 -23 130 -23 l85 -1 1585 529 c872 291 1605 538
1629 549 59 26 127 96 159 165 35 75 38 202 5 272 -24 54 -1700 2734 -1752
2803 -79 105 -233 153 -365 115 -85 -25 -178 -105 -211 -183 -9 -22 -57 -192
-105 -379 -49 -186 -91 -341 -94 -344 -8 -7 -150 89 -286 194 -147 114 -450
416 -564 564 -414 534 -644 1110 -717 1790 -14 130 -48 210 -115 268 -106 94
-181 104 -494 66z m-542 -481 c-10 -2 -28 -2 -40 0 -13 2 -5 4 17 4 22 1 32
-1 23 -4z m-83 -10 c-11 -2 -29 -6 -40 -8 -20 -4 -20 -11 -18 -1159 l3 -1155
41 -68 c23 -37 43 -71 46 -75 2 -5 2 -8 -1 -8 -13 0 -218 355 -303 525 -268
536 -441 1096 -524 1693 -16 119 -19 166 -11 171 6 3 172 24 369 45 197 20
365 39 373 41 8 1 31 3 50 3 19 0 26 -2 15 -5z"/>
</g>
</svg>
